<svg width="1440" height="161" viewBox="0 0 1440 161" fill="none" xmlns="http://www.w3.org/2000/svg">
<path d="M1440 32L1392 48C1344 64 1248 96 1152 122.7C1056 149 960 171 864 154.7C768 139 672 85 576 69.3C480 53 384 75 288 69.3C192 64 96 32 48 16L0 4.57764e-05L48 4.57764e-05C96 4.57764e-05 192 4.57764e-05 288 4.57764e-05C384 4.57764e-05 480 4.57764e-05 576 4.57764e-05C672 4.57764e-05 768 4.57764e-05 864 4.57764e-05C960 4.57764e-05 1056 4.57764e-05 1152 4.57764e-05C1248 4.57764e-05 1344 4.57764e-05 1392 4.57764e-05L1440 4.57764e-05L1440 32Z" fill="#191918"/>
</svg>
